<?xml version="1.0" encoding="UTF-8" standalone="no"?> <svg width="43" height="42" viewBox="0 0 43 42" fill="none" xmlns="http://www.w3.org/2000/svg">
<rect x="0.443359" width="42" height="42" rx="21" fill="black"/>
<path d="M11.8979 26.7273C11.6115 26.7273 11.4206 26.6318 11.2297 26.4409C10.8479 26.0591 10.8479 25.4863 11.2297 25.1045L15.907 20.4272C16.3843 19.95 16.6706 19.6636 17.0525 19.5682C17.4343 19.4727 17.8161 19.4727 18.1979 19.5682C18.6752 19.6636 18.9615 20.0454 19.3434 20.4272L21.9206 23.0045C22.1115 23.1954 22.3025 23.3863 22.3979 23.3863C22.3979 23.3863 22.5888 23.1954 22.7797 23.0045L28.6979 17.1818H24.307C23.7343 17.1818 23.3525 16.8 23.3525 16.2273C23.3525 15.6545 23.7343 15.2727 24.307 15.2727H30.9888C31.0843 15.2727 31.2752 15.2727 31.3706 15.3682C31.4661 15.3682 31.5615 15.4636 31.657 15.5591C31.7525 15.6545 31.8479 15.75 31.8479 15.8454C31.9434 15.9409 31.9434 16.1318 31.9434 16.2273V22.9091C31.9434 23.4818 31.5615 23.8636 30.9888 23.8636C30.4161 23.8636 30.0343 23.4818 30.0343 22.9091V18.5182L24.1161 24.4363C23.6388 24.9136 23.3525 25.2 22.9706 25.2954C22.5888 25.3909 22.207 25.3909 21.8252 25.2954C21.3479 25.2 21.0615 24.8182 20.6797 24.4363L18.1025 21.8591C17.8161 21.5727 17.6252 21.3818 17.6252 21.3818C17.6252 21.3818 17.4343 21.5727 17.2434 21.7636L12.5661 26.4409C12.3752 26.6318 12.1843 26.7273 11.8979 26.7273Z" fill="white"/>
</svg>
